<svg width="60" height="62" viewBox="0 0 60 62" fill="none" xmlns="http://www.w3.org/2000/svg">
<path d="M53.257 61H44.1036C43.0719 61 42.2356 60.1652 42.2356 59.1353V55.4059C42.2356 54.3761 43.0719 53.5413 44.1036 53.5413H53.257C54.2887 53.5413 55.125 54.3761 55.125 55.4059V59.1353C55.125 60.1652 54.2887 61 53.257 61Z" fill="#D9D9D9"/>
<path d="M47.431 1.52468C44.4017 4.58846 43.1884 6.91664 42.4586 10.8024C42.2914 11.6927 42.2356 12.5999 42.2356 13.5056V47.2013C42.2356 48.2312 43.0719 49.066 44.1036 49.066H53.257C54.2887 49.066 55.125 48.2312 55.125 47.2013V13.5056C55.125 12.5999 55.0692 11.6927 54.902 10.8024C54.1722 6.91675 52.9707 4.5886 49.9443 1.52496C49.2529 0.825041 48.1228 0.825079 47.431 1.52468Z" fill="#D9D9D9"/>
<path d="M34.5767 61H25.4233C24.3916 61 23.5553 60.1652 23.5553 59.1353V55.4059C23.5553 54.3761 24.3916 53.5413 25.4233 53.5413H34.5767C35.6084 53.5413 36.4447 54.3761 36.4447 55.4059V59.1353C36.4447 60.1652 35.6084 61 34.5767 61Z" fill="#D9D9D9"/>
<path d="M28.7507 1.52468C25.7214 4.58846 24.5081 6.91664 23.7783 10.8024C23.6111 11.6927 23.5553 12.5999 23.5553 13.5056V47.2013C23.5553 48.2312 24.3916 49.066 25.4233 49.066H34.5767C35.6084 49.066 36.4447 48.2312 36.4447 47.2013V13.5056C36.4447 12.5999 36.3889 11.6927 36.2217 10.8024C35.4919 6.91675 34.2904 4.5886 31.264 1.52496C30.5726 0.825041 29.4425 0.825079 28.7507 1.52468Z" fill="#D9D9D9"/>
<path d="M15.8964 61H6.74303C5.71135 61 4.875 60.1652 4.875 59.1353V55.4059C4.875 54.3761 5.71135 53.5413 6.74303 53.5413H15.8964C16.9281 53.5413 17.7644 54.3761 17.7644 55.4059V59.1353C17.7644 60.1652 16.9281 61 15.8964 61Z" fill="#D9D9D9"/>
<path d="M10.0704 1.52468C7.04111 4.58846 5.82778 6.91664 5.09799 10.8024C4.9308 11.6927 4.875 12.5999 4.875 13.5056V47.2013C4.875 48.2312 5.71135 49.066 6.74303 49.066H15.8964C16.9281 49.066 17.7644 48.2312 17.7644 47.2013V13.5056C17.7644 12.5999 17.7086 11.6927 17.5414 10.8024C16.8116 6.91675 15.6102 4.5886 12.5837 1.52496C11.8923 0.825041 10.7622 0.825079 10.0704 1.52468Z" fill="#D9D9D9"/>
<path d="M53.257 61H44.1036C43.0719 61 42.2356 60.1652 42.2356 59.1353V55.4059C42.2356 54.3761 43.0719 53.5413 44.1036 53.5413H53.257C54.2887 53.5413 55.125 54.3761 55.125 55.4059V59.1353C55.125 60.1652 54.2887 61 53.257 61Z" stroke="#D9D9D9"/>
<path d="M47.431 1.52468C44.4017 4.58846 43.1884 6.91664 42.4586 10.8024C42.2914 11.6927 42.2356 12.5999 42.2356 13.5056V47.2013C42.2356 48.2312 43.0719 49.066 44.1036 49.066H53.257C54.2887 49.066 55.125 48.2312 55.125 47.2013V13.5056C55.125 12.5999 55.0692 11.6927 54.902 10.8024C54.1722 6.91675 52.9707 4.5886 49.9443 1.52496C49.2529 0.825041 48.1228 0.825079 47.431 1.52468Z" stroke="#D9D9D9"/>
<path d="M34.5767 61H25.4233C24.3916 61 23.5553 60.1652 23.5553 59.1353V55.4059C23.5553 54.3761 24.3916 53.5413 25.4233 53.5413H34.5767C35.6084 53.5413 36.4447 54.3761 36.4447 55.4059V59.1353C36.4447 60.1652 35.6084 61 34.5767 61Z" stroke="#D9D9D9"/>
<path d="M28.7507 1.52468C25.7214 4.58846 24.5081 6.91664 23.7783 10.8024C23.6111 11.6927 23.5553 12.5999 23.5553 13.5056V47.2013C23.5553 48.2312 24.3916 49.066 25.4233 49.066H34.5767C35.6084 49.066 36.4447 48.2312 36.4447 47.2013V13.5056C36.4447 12.5999 36.3889 11.6927 36.2217 10.8024C35.4919 6.91675 34.2904 4.5886 31.264 1.52496C30.5726 0.825041 29.4425 0.825079 28.7507 1.52468Z" stroke="#D9D9D9"/>
<path d="M15.8964 61H6.74303C5.71135 61 4.875 60.1652 4.875 59.1353V55.4059C4.875 54.3761 5.71135 53.5413 6.74303 53.5413H15.8964C16.9281 53.5413 17.7644 54.3761 17.7644 55.4059V59.1353C17.7644 60.1652 16.9281 61 15.8964 61Z" stroke="#D9D9D9"/>
<path d="M10.0704 1.52468C7.04111 4.58846 5.82778 6.91664 5.09799 10.8024C4.9308 11.6927 4.875 12.5999 4.875 13.5056V47.2013C4.875 48.2312 5.71135 49.066 6.74303 49.066H15.8964C16.9281 49.066 17.7644 48.2312 17.7644 47.2013V13.5056C17.7644 12.5999 17.7086 11.6927 17.5414 10.8024C16.8116 6.91675 15.6102 4.5886 12.5837 1.52496C11.8923 0.825041 10.7622 0.825079 10.0704 1.52468Z" stroke="#D9D9D9"/>
</svg>
