<svg width="62" height="62" viewBox="0 0 62 62" fill="none" xmlns="http://www.w3.org/2000/svg">
<path d="M38.8917 61H23.1083C21.4514 61 20.1083 59.6569 20.1083 58V42.8917C20.1083 42.3394 19.6606 41.8917 19.1083 41.8917H4C2.34315 41.8917 1 40.5486 1 38.8917V23.1083C1 21.4514 2.34315 20.1083 4 20.1083H19.1083C19.6606 20.1083 20.1083 19.6606 20.1083 19.1083V4C20.1083 2.34315 21.4514 1 23.1083 1H38.8917C40.5486 1 41.8917 2.34315 41.8917 4V19.1083C41.8917 19.6606 42.3394 20.1083 42.8917 20.1083H58C59.6569 20.1083 61 21.4514 61 23.1083V38.8917C61 40.5486 59.6569 41.8917 58 41.8917H42.8917C42.3394 41.8917 41.8917 42.3394 41.8917 42.8917V58C41.8917 59.6569 40.5486 61 38.8917 61Z" fill="#D9D9D9" stroke="#D9D9D9"/>
</svg>
