<svg width="60" height="61" viewBox="0 0 60 61" fill="none" xmlns="http://www.w3.org/2000/svg">
<path d="M6.51333 36.9558C10.9117 44.2312 20.4165 55.0049 27.8401 59.7617C29.1615 60.6084 30.8386 60.6084 32.16 59.7617C39.5835 55.0049 49.0883 44.2312 53.4867 36.9558C54.3727 35.4903 54.75 33.7885 54.75 32.0742V11.0065C54.75 9.03413 54.3315 6.964 52.8023 5.72556C49.9613 3.42468 44.8154 2.45669 34.5333 1.42989C31.5203 1.12901 28.4798 1.12901 25.4668 1.42989C15.1847 2.45669 10.0387 3.42468 7.19766 5.72556C5.66849 6.964 5.25 9.03413 5.25 11.0065V32.0742C5.25 33.7885 5.62733 35.4903 6.51333 36.9558Z" fill="#D9D9D9" stroke="#D9D9D9"/>
</svg>
