<svg width="1440" height="630" viewBox="0 0 1440 630" fill="none" xmlns="http://www.w3.org/2000/svg">
<g clip-path="url(#clip0_660_1844)">
<rect width="1493.33" height="630" transform="translate(-27)" fill="#121214"/>
<g opacity="0.1">
<path fill-rule="evenodd" clip-rule="evenodd" d="M1283.02 26.5289C1283.02 26.5289 1314.09 54.357 1332.55 65.1768C1351.02 75.9966 1361.14 71.3603 1361.14 71.3603C1361.14 71.3603 1377.44 76.1179 1387.42 83.7878C1397.39 91.4578 1399.02 97.2823 1405.2 105.013C1411.38 112.743 1430.28 110.625 1430.28 110.625L1473.37 132.982L1517.16 157.332C1517.16 157.332 1473.84 131.941 1469.25 124.21C1464.67 116.48 1429.09 88.3686 1422.91 80.638C1416.72 72.9074 1408.22 74.4545 1402.04 63.6348C1395.85 52.815 1388.9 40.443 1378.84 31.1703C1368.8 21.8926 1347.95 7.97858 1336.73 1.79512C1325.51 -4.38833 1307.73 -10.5718 1307.73 -10.5718L1276.81 -17.5288L1246.67 -34.0062H1108.31C1108.31 -34.0062 1176.18 12.62 1207.02 24.2133C1218.69 28.5969 1283.02 26.534 1283.02 26.534L1283.02 26.5289Z" fill="#633BBC"/>
<path fill-rule="evenodd" clip-rule="evenodd" d="M597.909 170.639C597.909 170.639 621.293 185.928 627.83 191.53C634.368 197.132 655.84 199.625 660.047 201.182C664.254 202.739 674.335 216.749 674.335 216.749C674.335 216.749 680.144 227.109 681.535 234.536C682.93 241.963 701.577 250.371 701.577 250.371L719.268 257.844C719.268 257.844 691.854 227.023 688.795 219.555C685.731 212.082 689.483 205.237 681.54 201.187C673.592 197.142 654.273 190.605 652.261 183.132C650.248 175.659 618.805 149.51 608.845 144.843C598.885 140.171 569.343 128.967 569.343 128.967C569.343 128.967 588.535 160.375 597.914 170.649L597.909 170.639Z" fill="#633BBC"/>
<path fill-rule="evenodd" clip-rule="evenodd" d="M82.3164 335.008C82.3164 335.008 120.423 369.141 143.074 382.418C165.725 395.69 178.142 390.002 178.142 390.002C178.142 390.002 198.144 395.836 210.379 405.246C222.615 414.655 224.607 421.799 232.191 431.284C239.775 440.764 262.956 438.165 262.956 438.165L315.801 465.589L369.521 495.454C369.521 495.454 316.378 464.309 310.76 454.83C305.138 445.35 261.49 410.863 253.906 401.383C246.322 391.903 235.892 393.799 228.308 380.522C220.724 367.25 212.189 352.077 199.863 340.701C187.536 329.325 161.958 312.256 148.201 304.672C134.438 297.088 112.632 289.499 112.632 289.499L74.7072 280.965L37.7278 260.751H-132.001C-132.001 260.751 -48.7547 317.944 -10.9208 332.167C3.38759 337.546 82.3164 335.013 82.3164 335.013V335.008Z" fill="#633BBC"/>
<path fill-rule="evenodd" clip-rule="evenodd" d="M1346.59 246.164C1346.59 246.164 1398.23 274.937 1404.77 280.539C1411.3 286.141 1400.68 289.741 1403.74 293.028C1411.34 301.208 1450.44 312.185 1450.44 312.185C1450.44 312.185 1456.97 314.404 1458.36 321.831C1459.76 329.259 1468.51 334.067 1468.51 334.067L1486.2 341.54C1486.2 341.54 1448.8 310.193 1445.74 302.725C1442.67 295.252 1437.8 294.373 1429.86 290.328C1421.91 286.283 1395.46 275.66 1393.45 268.188C1391.43 260.715 1343.29 201.954 1333.32 197.288C1323.36 192.616 1285.87 186.918 1285.87 186.918C1285.87 186.918 1337.21 235.89 1346.59 246.164Z" fill="#633BBC"/>
<path fill-rule="evenodd" clip-rule="evenodd" d="M471.676 -15.7598C471.676 -15.7598 515.309 16.8006 535.427 25.3806C535.427 25.3806 560.59 23.4998 563.993 25.3806C567.396 27.2614 582.341 36.5341 583.888 40.1441C585.436 43.749 586.467 51.4796 589.556 55.0895C592.65 58.6944 620.473 72.0928 630.267 73.6399C640.06 75.187 663.763 79.8233 668.399 82.9176C673.035 86.0119 671.493 93.2217 674.067 96.8317C676.645 100.437 692.101 106.625 698.285 110.746C704.468 114.866 723.787 113.84 729.586 116.413C735.386 118.992 747.753 126.718 747.753 126.718L752.384 130.838C752.384 130.838 749.8 139.6 752.384 142.174C754.967 144.752 765.787 146.81 765.787 146.81C765.787 146.81 757.541 138.564 757.541 133.412C757.541 128.26 752.384 124.134 752.384 124.134C752.384 124.134 726.624 112.283 723.014 109.188C719.409 106.094 686.939 79.2975 684.366 74.6612C681.787 70.0249 676.12 57.1423 673.03 53.5323C669.936 49.9274 640.566 42.1968 633.351 39.1025C626.136 36.0083 616.853 26.7356 612.475 19.005C608.101 11.2745 599.855 -10.1224 597.277 -12.9437C594.698 -15.7649 589.03 -15.7649 589.03 -15.7649H471.666L471.676 -15.7598Z" fill="#633BBC"/>
<path fill-rule="evenodd" clip-rule="evenodd" d="M906.896 221.543C906.896 221.543 930.28 236.832 936.817 242.434C943.354 248.036 964.827 250.529 969.034 252.086C973.24 253.643 983.322 267.654 983.322 267.654C983.322 267.654 989.131 278.013 990.522 285.44C991.917 292.868 1010.56 301.276 1010.56 301.276L1028.25 308.748C1028.25 308.748 1000.84 277.927 997.782 270.46C994.718 262.987 998.47 256.141 990.527 252.091C982.579 248.046 963.26 241.509 961.248 234.036C959.235 226.564 927.792 200.414 917.832 195.747C907.872 191.076 878.33 179.872 878.33 179.872C878.33 179.872 897.522 211.279 906.901 221.553L906.896 221.543Z" fill="#633BBC"/>
<path fill-rule="evenodd" clip-rule="evenodd" d="M912.835 50.4431C912.835 50.4431 943.904 78.2712 962.368 89.091C980.833 99.9108 990.955 95.2745 990.955 95.2745C990.955 95.2745 1007.26 100.032 1017.24 107.702C1027.21 115.372 1025.66 129.286 1031.85 137.017C1038.03 144.747 1063.54 139.337 1063.54 139.337L1101.76 181.56L1127.03 208.129C1127.03 208.129 1099.75 172.57 1095.17 164.845C1090.59 157.114 1058.9 112.283 1052.71 104.552C1046.53 96.8216 1038.03 98.3687 1031.84 87.5489C1025.66 76.7291 1018.7 64.3572 1008.65 55.0845C998.605 45.8068 977.754 31.8928 966.535 25.7093C955.315 19.5259 937.538 13.3424 937.538 13.3424L906.621 6.38538L876.478 -10.092H738.116C738.116 -10.092 805.982 36.5341 836.823 48.1275C848.493 52.511 912.83 50.4482 912.83 50.4482L912.835 50.4431Z" fill="#633BBC"/>
<path fill-rule="evenodd" clip-rule="evenodd" d="M1035.14 -5.39984C1035.14 -5.39984 1051.96 18.5604 1064 25.5174C1076.04 32.4745 1091.26 35.4373 1096.95 42.3943C1102.65 49.3513 1124.68 65.2574 1124.68 65.2574L1156.31 78.3372C1156.31 78.3372 1113.24 41.9342 1108.53 33.4654C1103.81 25.0017 1091.14 18.0447 1091.14 18.0447L1035.14 -5.39984Z" fill="#633BBC"/>
<path fill-rule="evenodd" clip-rule="evenodd" d="M-44.5013 136.072C-44.5013 136.072 9.6027 175.211 20.4629 184.625C31.3232 194.039 60.4961 193.326 70.1531 203.206C79.81 213.085 97.1267 217.413 109.251 230.836C121.375 244.255 161.53 254.144 175.216 269.98C188.908 285.815 212.191 292.302 223.925 299.451C235.66 306.6 272.028 323.917 272.028 323.917C272.028 323.917 227.632 303.137 220.391 282.357C213.151 261.577 217.262 235.68 217.262 235.68C217.262 235.68 226.565 233.642 217.262 216.437C207.959 199.232 215.73 188.265 204.05 173.835C192.371 159.406 186.784 133.428 194.773 121.309C202.761 109.19 221.372 73.6057 217.262 52.4364C213.151 31.2619 249.281 15.6794 249.281 15.6794C249.281 15.6794 303.916 20.877 310.484 29.5328C317.051 38.1937 365.134 52.4364 365.134 52.4364C365.134 52.4364 403.554 54.5599 408.792 52.4364C414.025 50.3129 430.492 64.1662 443.906 76.2854C457.319 88.4096 459.933 81.0229 478.56 93.9965C497.191 106.97 500.75 126.557 511.439 136.077C511.439 136.077 499.476 115.171 495.714 93.9965C495.714 93.9965 514.851 96.1048 528.705 99.5682C542.558 103.031 549.197 102.263 558.767 109.574C568.338 116.885 578.875 121.501 578.875 121.501C578.875 121.501 562.666 106.879 558.767 98.7946C554.869 90.7152 551.79 82.6306 546.79 79.5516C541.79 76.4725 485.188 62.1944 470.687 55.4801C456.187 48.7657 443.906 26.6408 443.906 26.6408C443.906 26.6408 410.718 -19.9854 389.782 -20.6932C368.845 -21.4011 332.144 -31.4776 318.781 -40.8969C305.418 -50.3162 261.319 -103.834 261.319 -103.834H-37.1398L-44.5013 136.072Z" fill="#633BBC"/>
<path fill-rule="evenodd" clip-rule="evenodd" d="M434.253 229.773C434.253 229.773 457.636 245.062 464.174 250.664C470.711 256.266 492.184 258.759 496.39 260.316C500.597 261.873 510.679 275.883 510.679 275.883C510.679 275.883 516.488 286.243 517.878 293.67C519.274 301.098 537.92 309.506 537.92 309.506L555.611 316.978C555.611 316.978 528.198 286.157 525.139 278.689C522.075 271.217 525.826 264.371 517.883 260.321C509.935 256.276 490.617 249.739 488.604 242.266C486.592 234.793 455.149 208.644 445.189 203.977C435.228 199.306 405.686 188.102 405.686 188.102C405.686 188.102 424.879 219.509 434.258 229.783L434.253 229.773Z" fill="#633BBC"/>
</g>
<path d="M1048.81 10.6826C1048.1 10.6826 1047.52 10.0294 1047.52 9.22347C1047.52 8.41758 1048.1 7.76425 1048.81 7.76425C1049.51 7.76425 1050.09 8.41758 1050.09 9.22347C1050.09 10.0294 1049.51 10.6826 1048.81 10.6826Z" fill="white"/>
<path d="M1008.77 6.79766C1008.77 7.32508 1009.16 7.76458 1009.63 7.76458C1010.11 7.76458 1010.5 7.32508 1010.5 6.79766C1010.5 6.27024 1010.11 5.83075 1009.63 5.83075C1009.16 5.83075 1008.77 6.27024 1008.77 6.79766Z" fill="white"/>
<path d="M1031.44 177.241C1030.81 176.89 1030.04 177.188 1029.72 177.909C1029.41 178.63 1029.67 179.509 1030.32 179.861C1030.97 180.212 1031.73 179.913 1032.04 179.193C1032.36 178.472 1032.09 177.593 1031.44 177.241Z" fill="white"/>
<path d="M1000.94 45.1764C1000.51 44.9479 999.987 45.1413 999.776 45.6159C999.565 46.0906 999.741 46.6708 1000.16 46.9169C1000.58 47.1454 1001.11 46.952 1001.32 46.4774C1001.53 46.0027 1001.36 45.4225 1000.94 45.1764Z" fill="white"/>
<path d="M1180.85 152.367C1179.85 152.596 1179.18 153.686 1179.39 154.829C1179.58 155.971 1180.57 156.692 1181.57 156.481C1182.57 156.253 1183.24 155.163 1183.03 154.02C1182.83 152.895 1181.85 152.156 1180.85 152.367Z" fill="white"/>
<g opacity="0.64">
<path d="M1413.21 99.2334C1413.21 99.585 1413.45 99.8663 1413.77 99.8663C1414.09 99.8663 1414.33 99.585 1414.33 99.2334C1414.33 98.8818 1414.09 98.6005 1413.77 98.6005C1413.45 98.6005 1413.21 98.8818 1413.21 99.2334Z" fill="white"/>
<path d="M1390.27 70.7356C1390.27 70.9641 1390.44 71.1575 1390.64 71.1575C1390.83 71.1575 1391.01 70.9641 1391.01 70.7356C1391.01 70.507 1390.83 70.3137 1390.64 70.3137C1390.44 70.3137 1390.27 70.507 1390.27 70.7356Z" fill="white"/>
<path d="M1384.7 131.442C1384.42 131.284 1384.08 131.425 1383.94 131.724C1383.8 132.022 1383.92 132.409 1384.2 132.567C1384.49 132.726 1384.82 132.585 1384.96 132.286C1385.1 131.97 1384.98 131.6 1384.7 131.442Z" fill="white"/>
<path d="M1330.87 79.5089C1330.68 79.4034 1330.47 79.5088 1330.38 79.7022C1330.29 79.9132 1330.38 80.1593 1330.56 80.2648C1330.75 80.3703 1330.96 80.2648 1331.05 80.0714C1331.14 79.878 1331.05 79.6143 1330.87 79.5089Z" fill="white"/>
</g>
<g opacity="0.64">
<path d="M1075.48 103.053C1075.53 102.702 1075.32 102.385 1075.02 102.315C1074.72 102.262 1074.42 102.491 1074.37 102.825C1074.32 103.177 1074.53 103.493 1074.83 103.563C1075.12 103.634 1075.42 103.388 1075.48 103.053Z" fill="white"/>
<path d="M1091.91 107.307C1091.95 107.079 1091.81 106.868 1091.61 106.815C1091.4 106.78 1091.21 106.938 1091.17 107.167C1091.14 107.395 1091.28 107.606 1091.47 107.659C1091.68 107.694 1091.88 107.536 1091.91 107.307Z" fill="white"/>
<path d="M1133.91 107.024C1134.37 107.393 1135 107.27 1135.32 106.76C1135.65 106.25 1135.55 105.547 1135.09 105.178C1134.63 104.809 1134 104.932 1133.69 105.441C1133.35 105.951 1133.46 106.655 1133.91 107.024Z" fill="white"/>
<path d="M1069.83 59.7492C1070.13 59.9953 1070.55 59.925 1070.78 59.5734C1070.99 59.2393 1070.94 58.7647 1070.62 58.5186C1070.32 58.2724 1069.9 58.3427 1069.67 58.6943C1069.46 59.0284 1069.51 59.503 1069.83 59.7492Z" fill="white"/>
<path d="M1042.15 66.009C1042.59 66.009 1042.95 65.5871 1042.95 65.0773C1042.95 64.5674 1042.56 64.1807 1042.12 64.1982C1041.68 64.1982 1041.33 64.6202 1041.33 65.13C1041.33 65.6398 1041.72 66.0266 1042.15 66.009Z" fill="white"/>
<path d="M1178.74 51.7707C1178.74 52.4036 1179.2 52.9134 1179.76 52.9134C1180.32 52.9134 1180.78 52.4036 1180.78 51.7707C1180.78 51.1377 1180.32 50.6279 1179.76 50.6279C1179.2 50.6279 1178.74 51.1377 1178.74 51.7707Z" fill="white"/>
<path d="M1215.31 130.672C1215.31 131.937 1216.23 132.957 1217.35 132.957C1218.48 132.957 1219.39 131.937 1219.39 130.672C1219.39 129.406 1218.48 128.386 1217.35 128.386C1216.23 128.386 1215.31 129.406 1215.31 130.672Z" fill="white"/>
</g>
<g opacity="0.64">
<path d="M183.631 10.2671C183.455 10.0737 183.174 10.0737 182.998 10.2671C182.822 10.4605 182.822 10.7945 182.998 10.9879C183.174 11.1813 183.455 11.1813 183.631 10.9879C183.806 10.7945 183.806 10.4605 183.631 10.2671Z" fill="white"/>
</g>
<g opacity="0.64">
<path d="M74.2215 84.1226C73.9579 84.4215 73.9403 84.8962 74.2215 85.195C74.4851 85.4939 74.9068 85.5115 75.188 85.195C75.4516 84.8962 75.4692 84.4215 75.188 84.1226C74.9068 83.8238 74.5027 83.8062 74.2215 84.1226Z" fill="white"/>
<path d="M76.7837 37.7419C76.608 37.9353 76.608 38.2693 76.7837 38.4627C76.9594 38.6561 77.2407 38.6737 77.4164 38.4627C77.5921 38.2693 77.5921 37.9529 77.4164 37.7419C77.2407 37.5309 76.9594 37.5309 76.7837 37.7419Z" fill="white"/>
<path d="M25.457 83.5197C25.334 83.1154 24.965 82.9044 24.5959 83.0275C24.2445 83.1506 24.0512 83.5901 24.1566 83.9944C24.2796 84.3988 24.6486 84.6097 25.0177 84.4867C25.3691 84.3636 25.5624 83.9241 25.457 83.5197Z" fill="white"/>
<path d="M83.4621 146.955C83.0228 146.603 82.4077 146.744 82.1089 147.236C81.8102 147.728 81.9157 148.414 82.355 148.765C82.7943 149.117 83.4093 148.976 83.708 148.484C84.0068 147.992 83.9014 147.306 83.4621 146.955Z" fill="white"/>
</g>
<g opacity="0.64">
<path d="M647.2 117.805C647.481 118.104 647.956 118.174 648.255 117.928C648.553 117.699 648.571 117.26 648.272 116.943C647.991 116.644 647.516 116.574 647.218 116.82C646.919 117.049 646.901 117.488 647.2 117.805Z" fill="white"/>
<path d="M601.99 110.156C602.183 110.367 602.499 110.402 602.692 110.244C602.886 110.086 602.903 109.787 602.692 109.594C602.499 109.383 602.183 109.347 601.99 109.506C601.796 109.664 601.779 109.963 601.99 110.156Z" fill="white"/>
<path d="M646.101 167.699C645.714 167.769 645.486 168.138 645.609 168.525C645.732 168.912 646.154 169.14 646.54 169.07C646.927 169 647.155 168.63 647.032 168.244C646.909 167.857 646.488 167.628 646.101 167.699Z" fill="white"/>
<path d="M552.165 162.883C551.901 162.936 551.761 163.182 551.849 163.428C551.937 163.674 552.218 163.85 552.464 163.797C552.727 163.744 552.868 163.498 552.78 163.252C552.692 163.006 552.411 162.83 552.165 162.883Z" fill="white"/>
<path d="M708.594 115.169C708.26 115.591 708.365 116.223 708.857 116.593C709.349 116.962 710.017 116.927 710.351 116.505C710.685 116.083 710.58 115.45 710.088 115.081C709.596 114.712 708.928 114.747 708.594 115.169Z" fill="white"/>
</g>
<g opacity="0.64">
<path d="M429.519 164.651C429.256 164.95 429.238 165.424 429.519 165.723C429.8 166.022 430.204 166.04 430.486 165.723C430.749 165.424 430.767 164.95 430.486 164.651C430.222 164.352 429.8 164.335 429.519 164.651Z" fill="white"/>
<path d="M432.064 118.27C431.889 118.463 431.889 118.78 432.064 118.991C432.24 119.184 432.521 119.202 432.697 118.991C432.873 118.797 432.873 118.463 432.697 118.27C432.521 118.076 432.24 118.059 432.064 118.27Z" fill="white"/>
<path d="M378.484 152.853C378.361 152.449 377.992 152.238 377.623 152.361C377.272 152.484 377.079 152.923 377.184 153.328C377.307 153.732 377.676 153.943 378.045 153.82C378.397 153.697 378.59 153.257 378.484 152.853Z" fill="white"/>
<path d="M375.24 67.814C375.169 67.5503 374.906 67.4096 374.677 67.4975C374.449 67.5854 374.308 67.8667 374.396 68.148C374.466 68.4117 374.73 68.5524 374.958 68.4645C375.187 68.3766 375.327 68.0953 375.24 67.814Z" fill="white"/>
<path d="M418.511 207.347C418.071 206.995 417.456 207.136 417.158 207.628C416.859 208.121 416.964 208.806 417.404 209.158C417.843 209.509 418.458 209.369 418.757 208.877C419.055 208.384 418.95 207.699 418.511 207.347Z" fill="white"/>
</g>
<g opacity="0.64">
<path d="M559.941 48.8974C559.889 49.249 560.1 49.5654 560.398 49.6358C560.697 49.6885 560.996 49.46 561.048 49.126C561.101 48.7743 560.89 48.4579 560.592 48.3875C560.293 48.3172 559.994 48.5634 559.941 48.8974Z" fill="white"/>
<path d="M543.498 44.645C543.463 44.8735 543.604 45.0845 543.797 45.1372C544.008 45.1724 544.201 45.0142 544.236 44.7857C544.272 44.5571 544.131 44.3461 543.938 44.2934C543.727 44.2582 543.534 44.4164 543.498 44.645Z" fill="white"/>
<path d="M501.497 44.9433C501.04 44.5741 500.408 44.6971 500.091 45.207C499.757 45.7168 499.863 46.42 500.32 46.7892C500.777 47.1584 501.409 47.0354 501.726 46.5255C502.059 46.0157 501.954 45.3125 501.497 44.9433Z" fill="white"/>
<path d="M520.616 18.3775C520.318 18.1313 519.896 18.2017 519.667 18.5533C519.456 18.8873 519.509 19.362 519.826 19.6081C520.124 19.8543 520.546 19.7839 520.774 19.4323C521.003 19.0807 520.933 18.6236 520.616 18.3775Z" fill="white"/>
<path d="M604.493 99.3728C604.054 99.3728 603.703 99.7947 603.703 100.305C603.703 100.814 604.089 101.201 604.529 101.184C604.968 101.184 605.319 100.762 605.319 100.252C605.319 99.742 604.933 99.3552 604.493 99.3728Z" fill="white"/>
<path d="M471.298 160.03C470.735 160.03 470.278 159.518 470.278 158.887C470.278 158.256 470.735 157.744 471.298 157.744C471.861 157.744 472.317 158.256 472.317 158.887C472.317 159.518 471.861 160.03 471.298 160.03Z" fill="white"/>
<path d="M420.092 21.2792C420.092 20.0134 419.178 18.9937 418.053 18.9937C416.928 18.9937 416.015 20.0134 416.015 21.2792C416.015 22.545 416.928 23.5647 418.053 23.5647C419.178 23.5647 420.092 22.545 420.092 21.2792Z" fill="white"/>
</g>
<g opacity="0.64">
<path d="M1154.51 303.47C1154.42 303.136 1154.11 302.907 1153.81 302.978C1153.51 303.048 1153.33 303.364 1153.42 303.698C1153.51 304.033 1153.83 304.261 1154.13 304.191C1154.42 304.12 1154.6 303.804 1154.51 303.47Z" fill="white"/>
<path d="M1171.31 300.904C1171.26 300.676 1171.05 300.535 1170.83 300.57C1170.62 300.605 1170.52 300.834 1170.57 301.062C1170.62 301.291 1170.83 301.432 1171.05 301.396C1171.26 301.361 1171.36 301.133 1171.31 300.904Z" fill="white"/>
<path d="M1209.77 284.134C1210.34 284.292 1210.86 283.94 1210.97 283.342C1211.07 282.745 1210.69 282.129 1210.13 281.971C1209.56 281.813 1209.04 282.165 1208.93 282.762C1208.83 283.36 1209.21 283.975 1209.77 284.134Z" fill="white"/>
<path d="M1202.76 316.043C1203.13 316.148 1203.5 315.92 1203.55 315.516C1203.62 315.111 1203.36 314.707 1202.99 314.601C1202.62 314.496 1202.25 314.724 1202.2 315.129C1202.13 315.533 1202.39 315.937 1202.76 316.043Z" fill="white"/>
<path d="M1093.53 274.64C1093.94 274.447 1094.1 273.937 1093.89 273.48C1093.68 273.023 1093.18 272.812 1092.78 272.987C1092.37 273.181 1092.22 273.691 1092.43 274.148C1092.64 274.605 1093.13 274.816 1093.53 274.64Z" fill="white"/>
<path d="M1191.32 167.976C1191.57 168.556 1192.2 168.855 1192.71 168.627C1193.22 168.398 1193.45 167.765 1193.18 167.185C1192.92 166.605 1192.3 166.306 1191.79 166.535C1191.28 166.763 1191.06 167.396 1191.32 167.976Z" fill="white"/>
</g>
<g opacity="0.64">
<path d="M536.984 284.971C536.843 284.215 536.316 283.705 535.824 283.863C535.332 284.004 535.034 284.76 535.192 285.516C535.35 286.272 535.859 286.781 536.351 286.623C536.844 286.465 537.142 285.727 536.984 284.971Z" fill="white"/>
<path d="M564.524 279.185C564.436 278.675 564.084 278.341 563.751 278.447C563.417 278.552 563.223 279.045 563.329 279.555C563.417 280.064 563.768 280.398 564.102 280.293C564.436 280.187 564.629 279.695 564.524 279.185Z" fill="white"/>
<path d="M627.629 241.162C628.542 241.531 629.421 240.722 629.579 239.369C629.737 238.015 629.122 236.626 628.209 236.257C627.295 235.888 626.416 236.696 626.258 238.05C626.1 239.404 626.715 240.793 627.629 241.162Z" fill="white"/>
<path d="M616.12 313.485C616.735 313.731 617.315 313.186 617.42 312.29C617.525 311.393 617.121 310.461 616.506 310.215C615.891 309.969 615.311 310.514 615.206 311.411C615.1 312.307 615.505 313.239 616.12 313.485Z" fill="white"/>
<path d="M343.869 257.071C344.536 256.649 344.8 255.471 344.448 254.434C344.097 253.396 343.289 252.904 342.621 253.326C341.953 253.748 341.689 254.926 342.041 255.963C342.392 257 343.201 257.493 343.869 257.071Z" fill="white"/>
</g>
<g opacity="0.64">
<path d="M833.821 176.151C834.12 175.957 834.225 175.588 834.067 175.325C833.909 175.061 833.54 174.99 833.241 175.184C832.942 175.377 832.837 175.746 832.995 176.01C833.153 176.274 833.522 176.344 833.821 176.151Z" fill="white"/>
<path d="M841.533 191.218C841.727 191.095 841.797 190.849 841.691 190.673C841.586 190.498 841.34 190.462 841.147 190.585C840.953 190.709 840.883 190.955 840.988 191.13C841.094 191.306 841.34 191.341 841.533 191.218Z" fill="white"/>
<path d="M869.653 222.264C869.67 222.844 870.18 223.231 870.777 223.143C871.375 223.055 871.849 222.493 871.814 221.912C871.797 221.332 871.287 220.946 870.69 221.033C870.092 221.121 869.618 221.684 869.653 222.264Z" fill="white"/>
<path d="M837.001 225.676C837.001 226.063 837.352 226.327 837.756 226.257C838.16 226.186 838.459 225.835 838.459 225.448C838.459 225.061 838.108 224.797 837.703 224.868C837.299 224.938 837.001 225.29 837.001 225.676Z" fill="white"/>
<path d="M842.121 109.502C842.42 109.819 842.982 109.819 843.352 109.467C843.721 109.133 843.773 108.588 843.474 108.254C843.176 107.937 842.613 107.937 842.244 108.289C841.875 108.623 841.823 109.168 842.121 109.502Z" fill="white"/>
<path d="M974.646 168.311C974.171 168.733 974.083 169.401 974.452 169.823C974.821 170.245 975.507 170.245 975.981 169.823C976.456 169.401 976.543 168.733 976.174 168.311C975.805 167.889 975.12 167.889 974.646 168.311Z" fill="white"/>
</g>
<g opacity="0.64">
<path d="M230.691 244.593C230.603 244.259 230.287 244.03 229.988 244.101C229.689 244.171 229.513 244.487 229.601 244.822C229.689 245.156 230.005 245.384 230.304 245.314C230.603 245.243 230.779 244.927 230.691 244.593Z" fill="white"/>
<path d="M247.485 242.045C247.433 241.817 247.222 241.676 247.011 241.711C246.8 241.747 246.695 241.975 246.747 242.204C246.8 242.432 247.011 242.573 247.222 242.538C247.433 242.502 247.538 242.274 247.485 242.045Z" fill="white"/>
<path d="M285.953 225.252C286.516 225.41 287.043 225.058 287.148 224.461C287.254 223.863 286.867 223.248 286.305 223.089C285.742 222.931 285.215 223.283 285.11 223.881C285.004 224.478 285.391 225.094 285.953 225.252Z" fill="white"/>
<path d="M169.721 215.762C170.125 215.568 170.283 215.059 170.072 214.601C169.861 214.144 169.369 213.933 168.965 214.109C168.561 214.303 168.403 214.812 168.614 215.27C168.825 215.727 169.317 215.938 169.721 215.762Z" fill="white"/>
</g>
<path d="M901.888 69.1725C901.378 68.0298 900.148 67.5727 899.129 68.1528C898.11 68.733 897.705 70.1219 898.215 71.2646C898.725 72.4074 899.955 72.8644 900.974 72.2843C901.993 71.7041 902.397 70.3153 901.888 69.1725Z" fill="white"/>
<path d="M755.225 70.5267C755.946 70.5267 756.508 69.8586 756.508 69.0499C756.508 68.2412 755.91 67.6083 755.208 67.6083C754.487 67.6083 753.925 68.2763 753.925 69.085C753.925 69.8938 754.522 70.5267 755.225 70.5267Z" fill="white"/>
<path d="M893.51 116.395C893.985 116.395 894.371 115.956 894.354 115.411C894.354 114.883 893.95 114.444 893.475 114.461C893.001 114.461 892.614 114.901 892.632 115.446C892.632 115.973 893.036 116.413 893.51 116.395Z" fill="white"/>
<path d="M601.526 123.602C601.069 122.582 599.962 122.178 599.048 122.688C598.134 123.197 597.783 124.446 598.239 125.465C598.696 126.485 599.803 126.889 600.717 126.38C601.631 125.87 601.982 124.621 601.526 123.602Z" fill="white"/>
<path d="M459.508 250.393C460.035 250.393 460.457 249.901 460.457 249.303C460.457 248.705 460.017 248.23 459.49 248.23C458.963 248.23 458.541 248.723 458.541 249.32C458.541 249.918 458.98 250.393 459.508 250.393Z" fill="white"/>
<path d="M518.701 70.8276C519.72 70.8276 520.528 69.8782 520.51 68.7355C520.51 67.5927 519.667 66.6785 518.648 66.6961C517.629 66.7137 516.82 67.6455 516.838 68.7882C516.838 69.931 517.681 70.8451 518.701 70.8276Z" fill="white"/>
<path d="M179.58 132.255C180.055 131.833 180.143 131.059 179.774 130.532C179.405 130.004 178.719 129.899 178.245 130.321C177.77 130.743 177.682 131.516 178.051 132.044C178.42 132.571 179.106 132.677 179.58 132.255Z" fill="white"/>
<path d="M342.384 372.999C342.912 372.999 343.333 372.507 343.333 371.909C343.333 371.311 342.894 370.837 342.367 370.837C341.84 370.837 341.418 371.329 341.418 371.927C341.418 372.524 341.857 372.999 342.384 372.999Z" fill="white"/>
<path d="M387.507 182.883C388.526 182.883 389.334 181.934 389.317 180.791C389.317 179.648 388.473 178.734 387.454 178.751C386.435 178.769 385.627 179.701 385.644 180.844C385.644 181.986 386.488 182.9 387.507 182.883Z" fill="white"/>
<path d="M62.4402 254.86C62.9147 254.438 63.0026 253.664 62.6335 253.137C62.2645 252.609 61.5792 252.504 61.1047 252.926C60.6302 253.348 60.5424 254.121 60.9114 254.649C61.2805 255.176 61.9658 255.282 62.4402 254.86Z" fill="white"/>
<g opacity="0.4" filter="url(#filter0_f_660_1844)">
<ellipse cx="705.374" cy="14" rx="688.625" ry="347.083" fill="#633BBC"/>
</g>
<rect opacity="0.8" width="1493.33" height="756" transform="matrix(1 0 0 -1 -27.0007 756)" fill="url(#paint0_linear_660_1844)"/>
</g>
<defs>
<filter id="filter0_f_660_1844" x="-333.251" y="-683.083" width="2077.25" height="1394.17" filterUnits="userSpaceOnUse" color-interpolation-filters="sRGB">
<feFlood flood-opacity="0" result="BackgroundImageFix"/>
<feBlend mode="normal" in="SourceGraphic" in2="BackgroundImageFix" result="shape"/>
<feGaussianBlur stdDeviation="175" result="effect1_foregroundBlur_660_1844"/>
</filter>
<linearGradient id="paint0_linear_660_1844" x1="746.667" y1="0" x2="746.667" y2="756" gradientUnits="userSpaceOnUse">
<stop stop-color="#121214"/>
<stop offset="1" stop-color="#121214" stop-opacity="0"/>
</linearGradient>
<clipPath id="clip0_660_1844">
<rect width="1493.33" height="630" fill="white" transform="translate(-27)"/>
</clipPath>
</defs>
</svg>
