<svg width="283" height="161" viewBox="0 0 283 161" fill="none" xmlns="http://www.w3.org/2000/svg">
<g clip-path="url(#clip0_820_2605)">
<path d="M141.284 22.8382C155.082 22.8597 168.41 27.8532 178.822 36.9027L195.011 20.722C180.297 7.44001 161.176 0.0872498 141.35 0.0872498C121.524 0.0872498 102.403 7.44001 87.6888 20.722L103.701 36.9027C114.125 27.8432 127.47 22.8491 141.284 22.8382Z" fill="white"/>
<path d="M199.863 25.4836L183.675 41.6644C191.656 50.5365 196.668 61.6768 198.012 73.5319C199.356 85.3871 196.966 97.366 191.174 107.798L159.105 76.9358L144.636 42.1053V94.5274L176.396 125.081C166.358 132.908 153.992 137.158 141.262 137.158C128.531 137.158 116.165 132.908 106.127 125.081L137.887 94.5274V42.1053L123.419 77.024L91.3501 107.886C85.5578 97.4542 83.1671 85.4753 84.5114 73.6201C85.8556 61.765 90.8678 50.6246 98.8489 41.7526L82.6602 25.4836C72.0374 36.8897 64.9777 51.1477 62.3476 66.5074C59.7175 81.8671 61.6314 97.6601 67.8545 111.948C74.0776 126.236 84.3391 138.397 97.3793 146.938C110.42 155.479 125.671 160.029 141.262 160.029C156.853 160.029 172.104 155.479 185.144 146.938C198.184 138.397 208.446 126.236 214.669 111.948C220.892 97.6601 222.806 81.8671 220.176 66.5074C217.546 51.1477 210.486 36.8897 199.863 25.4836Z" fill="white"/>
<path d="M275.029 45.1033H233.255C228.634 32.9712 221.664 21.8692 212.744 12.4332L205.465 19.8843C220.771 36.1626 229.292 57.6611 229.292 80C229.292 102.339 220.771 123.837 205.465 140.116L212.92 147.567C221.786 138.122 228.697 127.02 233.255 114.897H274.852C275.753 114.92 276.65 114.763 277.489 114.435C278.329 114.106 279.094 113.613 279.739 112.984C280.385 112.356 280.897 111.604 281.248 110.774C281.598 109.944 281.778 109.052 281.778 108.151V51.849C281.778 50.0599 281.067 48.3441 279.801 47.0791C278.535 45.814 276.819 45.1033 275.029 45.1033Z" fill="#F06414"/>
<path d="M7.2145 114.897H48.9877C53.6092 127.029 60.5795 138.131 69.4994 147.567L76.7777 140.116C61.4718 123.837 52.9509 102.339 52.9509 80C52.9509 57.6611 61.4718 36.1626 76.7777 19.8843L69.323 12.4332C60.457 21.8776 53.5462 32.9804 48.9877 45.1033L7.39095 45.1033C6.48991 45.0798 5.5933 45.2369 4.754 45.5653C3.9147 45.8938 3.14971 46.3869 2.5042 47.0157C1.85869 47.6444 1.34573 48.396 0.99559 49.2262C0.645439 50.0563 0.465195 50.9481 0.4655 51.849L0.4655 108.151C0.4655 109.94 1.17656 111.656 2.44225 112.921C3.70792 114.186 5.42455 114.897 7.2145 114.897Z" fill="#F06414"/>
<path d="M250.371 93.3811L266.956 77.7294C267.974 76.8369 268.918 75.8637 269.78 74.8195C270.932 73.3178 271.607 71.5059 271.72 69.617V65.8694C271.788 65.313 271.788 64.7504 271.72 64.194C271.588 63.5263 271.381 62.8755 271.103 62.2541L243.048 88.7076C242.166 89.5453 241.24 90.383 240.402 91.353C239.027 92.9108 238.273 94.9193 238.284 96.9964V102.904H266.912C268.017 102.908 269.096 102.569 270 101.934C271.013 101.224 271.82 100.259 272.339 99.1358C272.858 98.013 273.071 96.7729 272.956 95.5415V93.3811H250.371ZM268.103 58.6388C266.978 57.7428 265.571 57.2742 264.133 57.3161H247.459C246.917 57.2518 246.369 57.2518 245.827 57.3161C244.786 57.6545 243.821 58.1947 242.989 58.9058C242.156 59.6169 241.472 60.485 240.975 61.4605C239.875 63.3275 239.324 65.4671 239.387 67.633V72.0419H248.871V66.6189H259.722L268.103 58.6388Z" fill="white"/>
<path d="M200.349 146.641H199.775V147.479H199.511V145.23H200.437C200.53 145.222 200.623 145.236 200.71 145.269C200.796 145.303 200.875 145.355 200.938 145.423C201.002 145.491 201.049 145.572 201.077 145.661C201.105 145.75 201.112 145.844 201.099 145.936C201.114 146.092 201.074 146.248 200.985 146.377C200.897 146.506 200.765 146.6 200.613 146.641L201.143 147.479H200.79L200.349 146.641ZM199.775 146.376H200.393C200.51 146.376 200.622 146.33 200.705 146.247C200.787 146.165 200.834 146.052 200.834 145.936C200.834 145.819 200.787 145.706 200.705 145.624C200.622 145.541 200.51 145.495 200.393 145.495H199.775V146.376Z" fill="white"/>
<path d="M200.26 148.493C199.969 148.511 199.678 148.469 199.403 148.372C199.128 148.274 198.876 148.122 198.662 147.924C198.447 147.726 198.275 147.487 198.156 147.221C198.036 146.955 197.972 146.668 197.967 146.376C197.967 145.792 198.199 145.231 198.613 144.818C199.026 144.404 199.587 144.172 200.172 144.172C200.757 144.172 201.318 144.404 201.732 144.818C202.145 145.231 202.378 145.792 202.378 146.376C202.366 146.934 202.14 147.466 201.745 147.86C201.35 148.255 200.818 148.481 200.26 148.493ZM200.26 144.525C200.019 144.525 199.78 144.573 199.558 144.666C199.336 144.76 199.134 144.897 198.966 145.07C198.797 145.242 198.665 145.447 198.577 145.671C198.488 145.896 198.446 146.135 198.452 146.376C198.452 146.856 198.642 147.316 198.982 147.655C199.321 147.994 199.781 148.184 200.26 148.184C200.502 148.19 200.742 148.148 200.966 148.059C201.191 147.971 201.395 147.839 201.568 147.67C201.74 147.502 201.878 147.301 201.971 147.078C202.065 146.856 202.113 146.618 202.113 146.376C202.113 145.885 201.918 145.414 201.57 145.067C201.223 144.72 200.752 144.525 200.26 144.525Z" fill="white"/>
<g clip-path="url(#clip1_820_2605)">
<path d="M34.9231 79.9231C34.9231 78.5832 33.8398 77.5 32.5 77.5C31.1602 77.5 30.0769 78.5832 30.0769 79.9231V88.0769H21.9231C20.5832 88.0769 19.5 89.1602 19.5 90.5C19.5 91.8398 20.5832 92.9231 21.9231 92.9231H30.0769V101.077C30.0769 102.417 31.1602 103.5 32.5 103.5C33.8398 103.5 34.9231 102.417 34.9231 101.077V92.9231H43.0769C44.4168 92.9231 45.5 91.8398 45.5 90.5C45.5 89.1602 44.4168 88.0769 43.0769 88.0769H34.9231V79.9231Z" fill="white" stroke="white"/>
</g>
<g clip-path="url(#clip2_820_2605)">
<path d="M22.9231 58.9231C22.9231 57.5832 21.8398 56.5 20.5 56.5C19.1602 56.5 18.0769 57.5832 18.0769 58.9231V67.0769H9.92308C8.58323 67.0769 7.5 68.1602 7.5 69.5C7.5 70.8398 8.58323 71.9231 9.92308 71.9231H18.0769V80.0769C18.0769 81.4168 19.1602 82.5 20.5 82.5C21.8398 82.5 22.9231 81.4168 22.9231 80.0769V71.9231H31.0769C32.4168 71.9231 33.5 70.8398 33.5 69.5C33.5 68.1602 32.4168 67.0769 31.0769 67.0769H22.9231V58.9231Z" fill="white" stroke="white"/>
</g>
</g>
<defs>
<clipPath id="clip0_820_2605">
<rect width="282" height="161" fill="white" transform="translate(0.111084)"/>
</clipPath>
<clipPath id="clip1_820_2605">
<rect width="27" height="27" fill="white" transform="translate(19 77)"/>
</clipPath>
<clipPath id="clip2_820_2605">
<rect width="27" height="27" fill="white" transform="translate(7 56)"/>
</clipPath>
</defs>
</svg>
