<svg width="60" height="60" viewBox="0 0 60 60" fill="none" xmlns="http://www.w3.org/2000/svg">
<path d="M18 10C8.0625 10 0 18.8687 0 29.8C0 40.7312 8.0625 49.6 18 49.6H42C51.9375 49.6 60 40.7312 60 29.8C60 18.8687 51.9375 10 42 10H18ZM46.5 28.975C44.4281 28.975 42.75 27.1291 42.75 24.85C42.75 22.5709 44.4281 20.725 46.5 20.725C48.5719 20.725 50.25 22.5709 50.25 24.85C50.25 27.1291 48.5719 28.975 46.5 28.975ZM44.25 34.75C44.25 37.0291 42.5719 38.875 40.5 38.875C38.4281 38.875 36.75 37.0291 36.75 34.75C36.75 32.4709 38.4281 30.625 40.5 30.625C42.5719 30.625 44.25 32.4709 44.25 34.75ZM15.75 24.025C15.75 22.6534 16.7531 21.55 18 21.55C19.2469 21.55 20.25 22.6534 20.25 24.025V27.325H23.25C24.4969 27.325 25.5 28.4284 25.5 29.8C25.5 31.1716 24.4969 32.275 23.25 32.275H20.25V35.575C20.25 36.9466 19.2469 38.05 18 38.05C16.7531 38.05 15.75 36.9466 15.75 35.575V32.275H12.75C11.5031 32.275 10.5 31.1716 10.5 29.8C10.5 28.4284 11.5031 27.325 12.75 27.325H15.75V24.025Z" fill="#05B604"/>
</svg>
