<svg width="60" height="60" viewBox="0 0 60 60" fill="none" xmlns="http://www.w3.org/2000/svg">
<g clip-path="url(#clip0_832_845)">
<path d="M37.4957 21.1721L37.4225 21.2453V21.3488V24.036L30.9458 30.5127V15.871L40.5668 6.25H43.0039V15.6639L37.4957 21.1721ZM51.7296 11.8314H59.7481V14.2685L41.6818 32.3349L41.6086 32.4081V32.5116V38.093V38.1966L41.6818 38.2698L44.3993 40.9873V50.0476L35.0586 40.7069L34.8818 40.5302L34.7051 40.7069L30.5922 44.8198H30.2481V39.7384H30.6958H30.7993L30.8726 39.6651L32.2679 38.2698L32.3411 38.1966V38.093V31.2198L51.7296 11.8314ZM29.7481 39.7384V44.8198H29.404L25.2912 40.7069L25.1144 40.5302L24.9376 40.7069L15.5969 50.0476V40.9873L18.3144 38.2698L18.3876 38.1966V38.093V32.5116V32.4081L18.3144 32.3349L0.248108 14.2685V11.8314H8.26665L27.6551 31.2198V38.093V38.1966L27.7283 38.2698L29.1237 39.6651L29.1969 39.7384H29.3004H29.7481ZM30.6958 46.7151H30.7993L30.8726 46.6419L34.8818 42.6326L39.412 47.1628L31.9876 54.5872H30.2481V46.7151H30.6958ZM29.7481 46.7151V54.5872H28.0086L20.5842 47.1628L25.1144 42.6326L29.1237 46.6419L29.1969 46.7151H29.3004H29.7481ZM16.9923 15.6639V6.25H19.4294L29.0504 15.871V30.5127L22.5737 24.036V21.3488V21.2453L22.5005 21.1721L16.9923 15.6639ZM45.3469 39.8325L43.5039 37.9895V32.6152L55.5621 20.557V29.6174L45.3469 39.8325ZM4.43415 20.557L16.4923 32.6152V37.9895L14.6493 39.8325L4.43415 29.6174V20.557Z" fill="#E7407F" stroke="#E7407F" stroke-width="0.5"/>
</g>
<defs>
<clipPath id="clip0_832_845">
<rect width="60" height="60" fill="white"/>
</clipPath>
</defs>
</svg>
