<svg width="60" height="60" viewBox="0 0 60 60" fill="none" xmlns="http://www.w3.org/2000/svg">
<path d="M26.3157 47.7857L26.3157 34.5L38.421 28.5L40.8247 29.5L47.8946 18.5L45.2632 17V9L52.6318 5.5L60 9V17L52.6318 21L50.5262 20L43.9824 31L51.0526 34.5V47.7857L38.421 54.2143L26.3157 47.7857Z" fill="#C13FE6"/>
<path d="M9.47366 27V19L16.8421 15L23.7631 18.7572C24.0117 18.8921 24.3282 18.8135 24.4756 18.5803L26.6184 15.1876C27.1092 14.4105 27.3685 13.5213 27.3685 12.615V9L34.7369 5L42.1053 9V17L34.7369 21L27.8157 17.2428C27.5671 17.1079 27.2506 17.1865 27.1033 17.4197L24.9605 20.8124C24.4697 21.5895 24.2105 22.4787 24.2105 23.3849V27L16.8421 31L9.47366 27Z" fill="#C13FE6"/>
<path d="M0 41.5V33.5L7.3684 29.5L14.7368 33.5V41.5L7.3684 45.5L0 41.5Z" fill="#C13FE6"/>
</svg>
